<svg xmlns="http://www.w3.org/2000/svg" width="309" height="58.593" viewBox="0 0 309 58.593">
  <g id="Group_337" data-name="Group 337" transform="translate(-196 9.593)">
    <g id="Rectangle_116" data-name="Rectangle 116" transform="translate(196 10)" fill="#00cc83" stroke="#707070" stroke-width="1">
      <rect width="309" height="19" stroke="none"/>
      <rect x="0.5" y="0.5" width="308" height="18" fill="none"/>
    </g>
    <g id="Group_336" data-name="Group 336" transform="translate(317.75 -9.593)">
      <g id="Group_17" data-name="Group 17" transform="translate(23.38 11.796)">
        <path id="Path_18" data-name="Path 18" d="M975.73,362.927h-4.88v17.48h-7.28v-17.48h-3.44v-6.16h3.44v-4a8.657,8.657,0,0,1,.56-3.16,6.14,6.14,0,0,1,2.2-2.92,7.68,7.68,0,0,1,4.56-1.28l5.4.04v6h-3.92a1.551,1.551,0,0,0-1,.32,1.684,1.684,0,0,0-.52,1.36v3.64h5.52Z" transform="translate(-960.13 -345.407)"/>
      </g>
      <path id="Path_204" data-name="Path 204" d="M968.25,390h0c-17.4,0-31.5-13.116-31.5-29.3h0c0-16.18,14.1-29.3,31.5-29.3h0c17.4,0,31.5,13.116,31.5,29.3h0C999.75,376.884,985.647,390,968.25,390Z" transform="translate(-936.75 -331.407)" fill="#00cc83"/>
      <g id="Group_129" data-name="Group 129" transform="translate(23.38 11.796)">
        <path id="Path_237" data-name="Path 237" d="M975.73,362.927h-4.88v17.48h-7.28v-17.48h-3.44v-6.16h3.44v-4a8.657,8.657,0,0,1,.56-3.16,6.14,6.14,0,0,1,2.2-2.92,7.68,7.68,0,0,1,4.56-1.28l5.4.04v6h-3.92a1.551,1.551,0,0,0-1,.32,1.684,1.684,0,0,0-.52,1.36v3.64h5.52Z" transform="translate(-960.13 -345.407)" fill="#fff"/>
      </g>
    </g>
  </g>
</svg>
